<?xml version="1.0" encoding="UTF-8"?>
<svg width="32" height="32" viewBox="0 0 32 32" fill="none" xmlns="http://www.w3.org/2000/svg">
  <!-- BurnCloud AI Logo -->
  <defs>
    <linearGradient id="burncloud-gradient" x1="0%" y1="0%" x2="100%" y2="100%">
      <stop offset="0%" style="stop-color:hsl(214, 100%, 59%);stop-opacity:1" />
      <stop offset="100%" style="stop-color:hsl(214, 100%, 45%);stop-opacity:1" />
    </linearGradient>
    <linearGradient id="burncloud-accent" x1="0%" y1="0%" x2="100%" y2="100%">
      <stop offset="0%" style="stop-color:hsl(214, 100%, 70%);stop-opacity:1" />
      <stop offset="100%" style="stop-color:hsl(214, 100%, 55%);stop-opacity:1" />
    </linearGradient>
  </defs>
  
  <!-- Main cloud shape -->
  <path d="M24 18C26.2091 18 28 16.2091 28 14C28 11.7909 26.2091 10 24 10C23.7146 10 23.4376 10.0347 23.1721 10.1004C22.4263 7.34517 19.9253 5.33333 16.9333 5.33333C13.9414 5.33333 11.4404 7.34517 10.6946 10.1004C10.4291 10.0347 10.1521 10 9.86667 10C7.65753 10 5.86667 11.7909 5.86667 14C5.86667 16.2091 7.65753 18 9.86667 18H24Z" fill="url(#burncloud-gradient)"/>
  
  <!-- AI spark/flame elements -->
  <circle cx="12" cy="14" r="2" fill="url(#burncloud-accent)" opacity="0.8"/>
  <circle cx="20" cy="12" r="1.5" fill="url(#burncloud-accent)" opacity="0.6"/>
  <circle cx="16" cy="16" r="1" fill="url(#burncloud-accent)" opacity="0.9"/>
  
  <!-- Neural network connections -->
  <path d="M12 14L16 16L20 12" stroke="url(#burncloud-accent)" stroke-width="0.5" opacity="0.4" fill="none"/>
  <path d="M14 13L18 15" stroke="url(#burncloud-accent)" stroke-width="0.3" opacity="0.3" fill="none"/>
  
  <!-- Base platform -->
  <rect x="6" y="22" width="20" height="4" rx="2" fill="url(#burncloud-gradient)" opacity="0.3"/>
  
  <!-- Data streams -->
  <path d="M8 20L8 22" stroke="url(#burncloud-accent)" stroke-width="1" opacity="0.5"/>
  <path d="M24 20L24 22" stroke="url(#burncloud-accent)" stroke-width="1" opacity="0.5"/>
  <path d="M16 18L16 22" stroke="url(#burncloud-accent)" stroke-width="1.5" opacity="0.7"/>
</svg>